<?xml version="1.0" standalone="no"?>
<!DOCTYPE svg PUBLIC "-//W3C//DTD SVG 20010904//EN"
 "http://www.w3.org/TR/2001/REC-SVG-20010904/DTD/svg10.dtd">
<svg version="1.0" xmlns="http://www.w3.org/2000/svg"
 width="240.000000pt" height="240.000000pt" viewBox="0 0 240.000000 240.000000"
 preserveAspectRatio="xMidYMid meet">

<g transform="translate(0.000000,240.000000) scale(0.100000,-0.100000)"
fill="#163020" stroke="none">
<path d="M912 2320 c10 -101 92 -179 201 -189 l62 -6 3 -87 c1 -49 -1 -88 -6
-88 -4 0 -23 16 -42 35 -39 41 -123 75 -182 75 l-41 0 5 -50 c10 -101 92 -179
201 -189 l62 -6 3 -92 c1 -51 1 -93 -1 -93 -2 0 -23 19 -47 41 -57 54 -133 89
-201 92 -53 2 -54 1 -57 -28 -13 -115 100 -229 242 -242 l66 -6 0 -83 c0 -46
-2 -84 -5 -84 -3 0 -19 16 -36 35 -40 45 -139 93 -211 101 l-58 7 0 -42 c0
-124 103 -225 244 -238 l66 -6 0 -88 c0 -49 -2 -89 -5 -89 -2 0 -23 20 -46 45
-23 25 -69 58 -103 75 -58 28 -158 51 -184 42 -17 -5 -15 -60 4 -114 36 -107
136 -178 262 -186 l73 -5 -3 -41 -3 -41 -212 -3 -213 -2 0 -24 c0 -13 15 -138
34 -279 37 -274 47 -306 108 -364 67 -64 102 -73 308 -73 206 0 241 9 308 73
61 58 71 90 108 364 19 141 34 266 34 279 l0 24 -212 2 -213 3 -3 41 -3 41 73
5 c126 8 226 79 262 186 19 54 21 109 4 114 -24 8 -122 -13 -176 -39 -30 -14
-78 -48 -105 -74 -28 -27 -52 -49 -54 -49 -2 0 -3 40 -3 89 l0 88 66 6 c140
13 244 114 244 237 0 38 -2 40 -29 40 -76 0 -237 -79 -255 -125 -3 -8 -10 -15
-16 -15 -6 0 -10 33 -10 84 l0 83 66 6 c142 13 255 127 242 242 -3 29 -4 30
-53 27 -62 -3 -158 -47 -207 -96 -20 -20 -40 -36 -43 -36 -3 0 -4 42 -3 93 l3
92 62 6 c110 10 191 87 201 191 l5 51 -55 -6 c-62 -6 -141 -42 -177 -81 -14
-14 -28 -26 -33 -26 -5 0 -7 39 -6 88 l3 87 60 6 c71 7 113 26 150 71 36 43
55 88 55 133 0 33 -2 35 -35 35 -64 0 -146 -39 -202 -95 l-51 -53 -60 58 c-63
61 -127 90 -200 90 l-35 0 5 -50z m136 -26 c48 -24 112 -88 112 -113 0 -26
-96 -2 -140 36 -30 25 -60 71 -60 93 0 17 33 11 88 -16z m392 12 c0 -22 -43
-79 -78 -102 -32 -22 -108 -41 -119 -31 -10 11 37 74 74 100 64 44 123 60 123
33z m-394 -320 c74 -34 144 -126 97 -126 -64 0 -140 46 -168 101 -30 56 -11
63 71 25z m394 14 c0 -44 -69 -113 -128 -130 -79 -22 -89 -10 -42 50 44 55
170 114 170 80z m-410 -315 c45 -23 81 -57 113 -105 24 -36 22 -40 -26 -40
-83 0 -178 73 -193 149 l-7 33 34 -7 c19 -4 54 -18 79 -30z m446 3 c-15 -75
-110 -148 -193 -148 -24 0 -43 4 -43 8 0 17 59 90 90 112 33 24 115 59 139 60
10 0 12 -8 7 -32z m-483 -294 c68 -23 167 -118 167 -160 0 -14 -112 6 -145 26
-45 28 -83 77 -91 118 -8 38 0 40 69 16z m483 -16 c-8 -41 -46 -90 -91 -118
-37 -23 -145 -40 -145 -23 0 20 61 94 99 119 40 26 104 53 130 54 10 0 12 -8
7 -32z m-470 -299 c61 -29 154 -127 154 -161 0 -16 -106 -7 -145 11 -66 31
-135 120 -135 175 0 18 64 5 126 -25z m514 21 c0 -25 -33 -88 -63 -119 -44
-46 -101 -71 -164 -71 -29 0 -53 2 -53 5 0 33 92 131 150 160 64 33 130 45
130 25z m80 -394 c0 -59 23 -56 -400 -56 -423 0 -400 -3 -400 56 l0 24 400 0
400 0 0 -24z m-19 -101 c12 -11 -44 -372 -63 -413 -26 -54 -83 -97 -149 -111
-65 -14 -273 -14 -338 0 -66 14 -123 57 -149 111 -19 41 -75 402 -63 413 6 6
756 6 762 0z"/>
</g>
</svg>
